{
  "accessors": [
    {
      "bufferView": 2,
      "componentType": 5126,
      "count": 65532,
      "max": [
        1.5252230167388916,
        1.1055999994277954,
        0.549992024898529
      ],
      "min": [
        -3.355889081954956,
        -1.0809719562530518,
        0.030119000002741814
      ],
      "type": "VEC3"
    },
    {
      "bufferView": 2,
      "byteOffset": 786384,
      "componentType": 5126,
      "count": 65532,
      "max": [
        0.7112340927124023,
        0.999997615814209,
        0.9779492616653442
      ],
      "min": [
        -0.9998293519020081,
        -0.9999903440475464,
        -0.9991463422775269
      ],
      "type": "VEC3"
    },
    {
      "bufferView": 1,
      "componentType": 5126,
      "count": 65532,
      "max": [
        0.7926139831542969,
        0.7205309867858887
      ],
      "min": [
        0.02508299984037876,
        0.0029380000196397305
      ],
      "type": "VEC2"
    },
    {
      "bufferView": 0,
      "componentType": 5125,
      "count": 103716,
      "type": "SCALAR"
    },
    {
      "bufferView": 2,
      "byteOffset": 1572768,
      "componentType": 5126,
      "count": 65532,
      "max": [
        -1.5252230167388916,
        1.0635499954223633,
        0.7130410075187683
      ],
      "min": [
        -3.3558878898620605,
        -1.0631279945373535,
        0.0199740007519722
      ],
      "type": "VEC3"
    },
    {
      "bufferView": 2,
      "byteOffset": 2359152,
      "componentType": 5126,
      "count": 65532,
      "max": [
        0.40299341082572937,
        0.9995160698890686,
        0.998913586139679
      ],
      "min": [
        -0.9999934434890747,
        -0.9998886585235596,
        -0.9877734780311584
      ],
      "type": "VEC3"
    },
    {
      "bufferView": 1,
      "byteOffset": 524256,
      "componentType": 5126,
      "count": 65532,
      "max": [
        0.7707669734954834,
        0.28891101479530334
      ],
      "min": [
        0.025450000539422035,
        0.0
      ],
      "type": "VEC2"
    },
    {
      "bufferView": 0,
      "byteOffset": 414864,
      "componentType": 5125,
      "count": 124920,
      "type": "SCALAR"
    },
    {
      "bufferView": 2,
      "byteOffset": 3145536,
      "componentType": 5126,
      "count": 65532,
      "max": [
        1.5252230167388916,
        1.1055999994277954,
        0.7130410075187683
      ],
      "min": [
        -3.355889081954956,
        -1.0809719562530518,
        -0.0004619999963324517
      ],
      "type": "VEC3"
    },
    {
      "bufferView": 2,
      "byteOffset": 3931920,
      "componentType": 5126,
      "count": 65532,
      "max": [
        0.7178664207458496,
        0.9999703168869019,
        0.9998719692230225
      ],
      "min": [
        -0.9999938011169434,
        -0.9999903440475464,
        -0.9999992847442627
      ],
      "type": "VEC3"
    },
    {
      "bufferView": 1,
      "byteOffset": 1048512,
      "componentType": 5126,
      "count": 65532,
      "max": [
        0.8092120289802551,
        0.7197449803352356
      ],
      "min": [
        0.0739390030503273,
        0.0
      ],
      "type": "VEC2"
    },
    {
      "bufferView": 0,
      "byteOffset": 914544,
      "componentType": 5125,
      "count": 111186,
      "type": "SCALAR"
    },
    {
      "bufferView": 2,
      "byteOffset": 4718304,
      "componentType": 5126,
      "count": 65532,
      "max": [
        1.5252230167388916,
        1.03187096118927,
        0.733476996421814
      ],
      "min": [
        -3.330493927001953,
        -0.9213939905166626,
        -0.0004619999963324517
      ],
      "type": "VEC3"
    },
    {
      "bufferView": 2,
      "byteOffset": 5504688,
      "componentType": 5126,
      "count": 65532,
      "max": [
        0.5070201754570007,
        0.6758972406387329,
        1.0
      ],
      "min": [
        -0.6909897923469543,
        -0.00020000283257104456,
        -1.0
      ],
      "type": "VEC3"
    },
    {
      "bufferView": 1,
      "byteOffset": 1572768,
      "componentType": 5126,
      "count": 65532,
      "max": [
        0.7707669734954834,
        0.7014139890670776
      ],
      "min": [
        0.06739400327205658,
        0.0201370008289814
      ],
      "type": "VEC2"
    },
    {
      "bufferView": 0,
      "byteOffset": 1359288,
      "componentType": 5125,
      "count": 191931,
      "type": "SCALAR"
    },
    {
      "bufferView": 2,
      "byteOffset": 6291072,
      "componentType": 5126,
      "count": 65532,
      "max": [
        1.5252230167388916,
        0.8997529745101929,
        0.733476996421814
      ],
      "min": [
        -3.2305281162261963,
        -0.9211999773979187,
        -0.0004619999963324517
      ],
      "type": "VEC3"
    },
    {
      "bufferView": 2,
      "byteOffset": 7077456,
      "componentType": 5126,
      "count": 65532,
      "max": [
        0.454199880361557,
        0.00010000515612773597,
        1.0
      ],
      "min": [
        -0.5360081195831299,
        -0.00020000600488856435,
        -1.0
      ],
      "type": "VEC3"
    },
    {
      "bufferView": 1,
      "byteOffset": 2097024,
      "componentType": 5126,
      "count": 65532,
      "max": [
        0.7553290128707886,
        0.7076410055160522
      ],
      "min": [
        0.09042000025510788,
        0.030581999570131302
      ],
      "type": "VEC2"
    },
    {
      "bufferView": 0,
      "byteOffset": 2127012,
      "componentType": 5125,
      "count": 279336,
      "type": "SCALAR"
    },
    {
      "bufferView": 2,
      "byteOffset": 7863840,
      "componentType": 5126,
      "count": 65534,
      "max": [
        -2.7064409255981445,
        0.8946189880371094,
        0.42342498898506165
      ],
      "min": [
        -3.355128049850464,
        -0.9214180111885071,
        0.31992998719215393
      ],
      "type": "VEC3"
    },
    {
      "bufferView": 2,
      "byteOffset": 8650248,
      "componentType": 5126,
      "count": 65534,
      "max": [
        0.5288928747177124,
        0.26740720868110657,
        1.0
      ],
      "min": [
        -0.9995630383491516,
        -0.27601081132888794,
        -1.0
      ],
      "type": "VEC3"
    },
    {
      "bufferView": 1,
      "byteOffset": 2621280,
      "componentType": 5126,
      "count": 65534,
      "max": [
        0.7530059814453125,
        0.1422490030527115
      ],
      "min": [
        0.08999200165271759,
        0.019531000405550003
      ],
      "type": "VEC2"
    },
    {
      "bufferView": 0,
      "byteOffset": 3244356,
      "componentType": 5125,
      "count": 178356,
      "type": "SCALAR"
    },
    {
      "bufferView": 2,
      "byteOffset": 9436656,
      "componentType": 5126,
      "count": 65533,
      "max": [
        1.4881759881973267,
        0.8946340084075928,
        0.733476996421814
      ],
      "min": [
        -3.3552420139312744,
        -0.9211909770965576,
        0.14023800194263458
      ],
      "type": "VEC3"
    },
    {
      "bufferView": 2,
      "byteOffset": 10223052,
      "componentType": 5126,
      "count": 65533,
      "max": [
        0.5283980369567871,
        0.29278454184532166,
        1.0
      ],
      "min": [
        -0.9997517466545105,
        -0.29121285676956177,
        -1.0
      ],
      "type": "VEC3"
    },
    {
      "bufferView": 1,
      "byteOffset": 3145552,
      "componentType": 5126,
      "count": 65533,
      "max": [
        0.761942982673645,
        0.7016950249671936
      ],
      "min": [
        0.08371400088071823,
        0.0023139999248087406
      ],
      "type": "VEC2"
    },
    {
      "bufferView": 0,
      "byteOffset": 3957780,
      "componentType": 5125,
      "count": 167463,
      "type": "SCALAR"
    },
    {
      "bufferView": 2,
      "byteOffset": 11009448,
      "componentType": 5126,
      "count": 65532,
      "max": [
        1.5252230167388916,
        1.0026639699935913,
        0.733476996421814
      ],
      "min": [
        -3.355889081954956,
        -1.001850962638855,
        -0.0004619999963324517
      ],
      "type": "VEC3"
    },
    {
      "bufferView": 2,
      "byteOffset": 11795832,
      "componentType": 5126,
      "count": 65532,
      "max": [
        0.5283259153366089,
        0.6758972406387329,
        1.0
      ],
      "min": [
        -0.9998293519020081,
        -0.7669177651405334,
        -1.0
      ],
      "type": "VEC3"
    },
    {
      "bufferView": 1,
      "byteOffset": 3669816,
      "componentType": 5126,
      "count": 65532,
      "max": [
        0.7707669734954834,
        0.7086009979248047
      ],
      "min": [
        0.0960410013794899,
        0.009513000026345253
      ],
      "type": "VEC2"
    },
    {
      "bufferView": 0,
      "byteOffset": 4627632,
      "componentType": 5125,
      "count": 134916,
      "type": "SCALAR"
    },
    {
      "bufferView": 2,
      "byteOffset": 12582216,
      "componentType": 5126,
      "count": 65532,
      "max": [
        3.3306989669799805,
        0.9915869832038879,
        0.7334759831428528
      ],
      "min": [
        -3.179966926574707,
        -0.9967730045318604,
        -0.0004569999873638153
      ],
      "type": "VEC3"
    },
    {
      "bufferView": 2,
      "byteOffset": 13368600,
      "componentType": 5126,
      "count": 65532,
      "max": [
        0.9994542002677917,
        0.2927038371562958,
        1.0
      ],
      "min": [
        -0.5358203649520874,
        -0.7314803004264832,
        -1.0
      ],
      "type": "VEC3"
    },
    {
      "bufferView": 1,
      "byteOffset": 4194072,
      "componentType": 5126,
      "count": 65532,
      "max": [
        0.7720280289649963,
        0.9863079786300659
      ],
      "min": [
        0.08247099816799164,
        0.03632400184869766
      ],
      "type": "VEC2"
    },
    {
      "bufferView": 0,
      "byteOffset": 5167296,
      "componentType": 5125,
      "count": 180108,
      "type": "SCALAR"
    },
    {
      "bufferView": 2,
      "byteOffset": 14154984,
      "componentType": 5126,
      "count": 65532,
      "max": [
        3.2305281162261963,
        0.9007369875907898,
        0.7334709763526917
      ],
      "min": [
        1.5611599683761597,
        -0.9218950271606445,
        0.31992998719215393
      ],
      "type": "VEC3"
    },
    {
      "bufferView": 2,
      "byteOffset": 14941368,
      "componentType": 5126,
      "count": 65532,
      "max": [
        0.5331951975822449,
        0.00010000505426432937,
        1.0
      ],
      "min": [
        -0.454199880361557,
        -0.00010000505426432937,
        -0.9999089241027832
      ],
      "type": "VEC3"
    },
    {
      "bufferView": 1,
      "byteOffset": 4718328,
      "componentType": 5126,
      "count": 65532,
      "max": [
        0.7601159811019897,
        0.969622015953064
      ],
      "min": [
        0.08714299649000168,
        0.7058119773864746
      ],
      "type": "VEC2"
    },
    {
      "bufferView": 0,
      "byteOffset": 5887728,
      "componentType": 5125,
      "count": 196146,
      "type": "SCALAR"
    },
    {
      "bufferView": 2,
      "byteOffset": 15727752,
      "componentType": 5126,
      "count": 65534,
      "max": [
        3.354343891143799,
        0.8997430205345154,
        0.733476996421814
      ],
      "min": [
        0.776311993598938,
        -1.0105350017547607,
        -0.0004619999963324517
      ],
      "type": "VEC3"
    },
    {
      "bufferView": 2,
      "byteOffset": 16514160,
      "componentType": 5126,
      "count": 65534,
      "max": [
        0.9998329281806946,
        0.286795437335968,
        1.0
      ],
      "min": [
        -0.507404625415802,
        -0.791213870048523,
        -1.0
      ],
      "type": "VEC3"
    },
    {
      "bufferView": 1,
      "byteOffset": 5242584,
      "componentType": 5126,
      "count": 65534,
      "max": [
        0.7551900148391724,
        0.9970669746398926
      ],
      "min": [
        0.10271099954843521,
        0.6071119904518127
      ],
      "type": "VEC2"
    },
    {
      "bufferView": 0,
      "byteOffset": 6672312,
      "componentType": 5125,
      "count": 147099,
      "type": "SCALAR"
    },
    {
      "bufferView": 2,
      "byteOffset": 17300568,
      "componentType": 5126,
      "count": 65533,
      "max": [
        3.355889081954956,
        1.0026639699935913,
        0.733476996421814
      ],
      "min": [
        0.0,
        -1.0370320081710815,
        -0.0004619999963324517
      ],
      "type": "VEC3"
    },
    {
      "bufferView": 2,
      "byteOffset": 18086964,
      "componentType": 5126,
      "count": 65533,
      "max": [
        0.9976192712783813,
        0.6758972406387329,
        1.0
      ],
      "min": [
        -0.5290098190307617,
        -0.7615990042686462,
        -1.0
      ],
      "type": "VEC3"
    },
    {
      "bufferView": 1,
      "byteOffset": 5766856,
      "componentType": 5126,
      "count": 65533,
      "max": [
        0.7738620042800903,
        0.9956499934196472
      ],
      "min": [
        0.07562199980020523,
        0.4985400140285492
      ],
      "type": "VEC2"
    },
    {
      "bufferView": 0,
      "byteOffset": 7260708,
      "componentType": 5125,
      "count": 127143,
      "type": "SCALAR"
    },
    {
      "bufferView": 2,
      "byteOffset": 18873360,
      "componentType": 5126,
      "count": 65532,
      "max": [
        3.348997116088867,
        1.079313039779663,
        0.7334759831428528
      ],
      "min": [
        -1.5252230167388916,
        -1.063709020614624,
        0.030119000002741814
      ],
      "type": "VEC3"
    },
    {
      "bufferView": 2,
      "byteOffset": 19659744,
      "componentType": 5126,
      "count": 65532,
      "max": [
        0.9566723108291626,
        0.999997615814209,
        1.0
      ],
      "min": [
        -0.4874872863292694,
        -0.999854564666748,
        -1.0
      ],
      "type": "VEC3"
    },
    {
      "bufferView": 1,
      "byteOffset": 6291120,
      "componentType": 5126,
      "count": 65532,
      "max": [
        0.773826003074646,
        0.9914600253105164
      ],
      "min": [
        0.05751900002360344,
        0.2866840064525604
      ],
      "type": "VEC2"
    },
    {
      "bufferView": 0,
      "byteOffset": 7769280,
      "componentType": 5125,
      "count": 123156,
      "type": "SCALAR"
    },
    {
      "bufferView": 2,
      "byteOffset": 20446128,
      "componentType": 5126,
      "count": 65532,
      "max": [
        3.3552420139312744,
        0.9915869832038879,
        0.733476996421814
      ],
      "min": [
        0.8746309876441956,
        -0.9969599843025208,
        0.15149199962615967
      ],
      "type": "VEC3"
    },
    {
      "bufferView": 2,
      "byteOffset": 21232512,
      "componentType": 5126,
      "count": 65532,
      "max": [
        0.999748170375824,
        0.2673880457878113,
        1.0
      ],
      "min": [
        -0.5287759900093079,
        -0.7281994223594666,
        -1.0
      ],
      "type": "VEC3"
    },
    {
      "bufferView": 1,
      "byteOffset": 6815376,
      "componentType": 5126,
      "count": 65532,
      "max": [
        0.7706040143966675,
        0.9872360229492188
      ],
      "min": [
        0.08863800019025803,
        0.6159409880638123
      ],
      "type": "VEC2"
    },
    {
      "bufferView": 0,
      "byteOffset": 8261904,
      "componentType": 5125,
      "count": 137010,
      "type": "SCALAR"
    },
    {
      "bufferView": 2,
      "byteOffset": 22018896,
      "componentType": 5126,
      "count": 65532,
      "max": [
        3.355889081954956,
        1.0635499954223633,
        0.7334759831428528
      ],
      "min": [
        0.0,
        -1.0635219812393188,
        -0.0004619999963324517
      ],
      "type": "VEC3"
    },
    {
      "bufferView": 2,
      "byteOffset": 22805280,
      "componentType": 5126,
      "count": 65532,
      "max": [
        0.9999939203262329,
        0.9976890087127686,
        1.0
      ],
      "min": [
        -0.5285149812698364,
        -0.9975956082344055,
        -1.0
      ],
      "type": "VEC3"
    },
    {
      "bufferView": 1,
      "byteOffset": 7339632,
      "componentType": 5126,
      "count": 65532,
      "max": [
        0.7837740182876587,
        0.9947909712791443
      ],
      "min": [
        0.06622599810361862,
        0.495961993932724
      ],
      "type": "VEC2"
    },
    {
      "bufferView": 0,
      "byteOffset": 8809944,
      "componentType": 5125,
      "count": 112665,
      "type": "SCALAR"
    },
    {
      "bufferView": 2,
      "byteOffset": 23591664,
      "componentType": 5126,
      "count": 65533,
      "max": [
        3.2868969440460205,
        1.1055999994277954,
        0.7130410075187683
      ],
      "min": [
        0.0,
        -1.0809719562530518,
        0.0199740007519722
      ],
      "type": "VEC3"
    },
    {
      "bufferView": 2,
      "byteOffset": 24378060,
      "componentType": 5126,
      "count": 65533,
      "max": [
        0.7669005393981934,
        0.9999703168869019,
        0.9986127614974976
      ],
      "min": [
        -0.7178752422332764,
        -0.9999903440475464,
        -0.9877734780311584
      ],
      "type": "VEC3"
    },
    {
      "bufferView": 1,
      "byteOffset": 7863888,
      "componentType": 5126,
      "count": 65533,
      "max": [
        0.8092120289802551,
        0.9784129858016968
      ],
      "min": [
        0.024606000632047653,
        0.48878800868988037
      ],
      "type": "VEC2"
    },
    {
      "bufferView": 0,
      "byteOffset": 9260604,
      "componentType": 5125,
      "count": 126747,
      "type": "SCALAR"
    },
    {
      "bufferView": 2,
      "byteOffset": 25164456,
      "componentType": 5126,
      "count": 65532,
      "max": [
        3.3558878898620605,
        1.1055999994277954,
        0.549992024898529
      ],
      "min": [
        0.0,
        -1.0809210538864136,
        0.030119000002741814
      ],
      "type": "VEC3"
    },
    {
      "bufferView": 2,
      "byteOffset": 25950840,
      "componentType": 5126,
      "count": 65532,
      "max": [
        0.9999935626983643,
        0.999997615814209,
        0.9986782073974609
      ],
      "min": [
        -0.7112340927124023,
        -0.9999061822891235,
        -0.9991775751113892
      ],
      "type": "VEC3"
    },
    {
      "bufferView": 1,
      "byteOffset": 8388152,
      "componentType": 5126,
      "count": 65532,
      "max": [
        0.7926139831542969,
        1.0
      ],
      "min": [
        0.024606000632047653,
        0.48878198862075806
      ],
      "type": "VEC2"
    },
    {
      "bufferView": 0,
      "byteOffset": 9767592,
      "componentType": 5125,
      "count": 99888,
      "type": "SCALAR"
    },
    {
      "bufferView": 2,
      "byteOffset": 26737224,
      "componentType": 5126,
      "count": 65534,
      "max": [
        3.355889081954956,
        1.0793139934539795,
        0.7334759831428528
      ],
      "min": [
        -3.348997116088867,
        -1.0809719562530518,
        0.030119000002741814
      ],
      "type": "VEC3"
    },
    {
      "bufferView": 2,
      "byteOffset": 27523632,
      "componentType": 5126,
      "count": 65534,
      "max": [
        0.9998368620872498,
        0.999997615814209,
        1.0
      ],
      "min": [
        -0.9566684365272522,
        -0.9999903440475464,
        -0.9995101094245911
      ],
      "type": "VEC3"
    },
    {
      "bufferView": 1,
      "byteOffset": 8912408,
      "componentType": 5126,
      "count": 65534,
      "max": [
        0.7792540192604065,
        0.9926949739456177
      ],
      "min": [
        0.05752300098538399,
        0.008197000250220299
      ],
      "type": "VEC2"
    },
    {
      "bufferView": 0,
      "byteOffset": 10167144,
      "componentType": 5125,
      "count": 102270,
      "type": "SCALAR"
    },
    {
      "bufferView": 2,
      "byteOffset": 28310040,
      "componentType": 5126,
      "count": 43054,
      "max": [
        -2.8159279823303223,
        1.050307035446167,
        0.3979809880256653
      ],
      "min": [
        -3.3487110137939453,
        -1.0370320081710815,
        0.3518039882183075
      ],
      "type": "VEC3"
    },
    {
      "bufferView": 2,
      "byteOffset": 28826688,
      "componentType": 5126,
      "count": 43054,
      "max": [
        0.5285869836807251,
        0.29340988397598267,
        1.0
      ],
      "min": [
        -0.9676926136016846,
        -0.291688472032547,
        -1.0
      ],
      "type": "VEC3"
    },
    {
      "bufferView": 1,
      "byteOffset": 9436680,
      "componentType": 5126,
      "count": 43054,
      "max": [
        0.7749930024147034,
        0.12528599798679352
      ],
      "min": [
        0.06586600095033646,
        0.003587000072002411
      ],
      "type": "VEC2"
    },
    {
      "bufferView": 0,
      "byteOffset": 10576224,
      "componentType": 5125,
      "count": 71592,
      "type": "SCALAR"
    }
  ],
  "asset": {
    "extras": {
      "author": "BARDit (https://sketchfab.com/BARDit)",
      "license": "CC-BY-4.0 (http://creativecommons.org/licenses/by/4.0/)",
      "source": "https://sketchfab.com/3d-models/biscuits-packaging-3d-model-3d828241ca3b45b2bfcf0ff8e0d0083d",
      "title": "Biscuits packaging 3D Model"
    },
    "generator": "Sketchfab-15.40.0",
    "version": "2.0"
  },
  "bufferViews": [
    {
      "buffer": 0,
      "byteLength": 10862592,
      "name": "floatBufferViews",
      "target": 34963
    },
    {
      "buffer": 0,
      "byteLength": 9781112,
      "byteOffset": 10862592,
      "byteStride": 8,
      "name": "floatBufferViews",
      "target": 34962
    },
    {
      "buffer": 0,
      "byteLength": 29343336,
      "byteOffset": 20643704,
      "byteStride": 12,
      "name": "floatBufferViews",
      "target": 34962
    }
  ],
  "buffers": [
    {
      "byteLength": 49987040,
      "uri": "scene.bin"
    }
  ],
  "extensionsUsed": [
    "KHR_materials_specular"
  ],
  "images": [
    {
      "uri": "textures/Material_baseColor.png"
    }
  ],
  "materials": [
    {
      "doubleSided": true,
      "extensions": {
        "KHR_materials_specular": {
          "specularColorFactor": [
            1.0,
            1.0,
            1.0
          ],
          "specularFactor": 0.10819080591483707
        }
      },
      "name": "Material",
      "pbrMetallicRoughness": {
        "baseColorTexture": {
          "index": 0
        },
        "metallicFactor": 0.4190488961490168,
        "roughnessFactor": 0.10819080591483707
      }
    }
  ],
  "meshes": [
    {
      "name": "Object_0",
      "primitives": [
        {
          "attributes": {
            "NORMAL": 1,
            "POSITION": 0,
            "TEXCOORD_0": 2
          },
          "indices": 3,
          "material": 0,
          "mode": 4
        }
      ]
    },
    {
      "name": "Object_1",
      "primitives": [
        {
          "attributes": {
            "NORMAL": 5,
            "POSITION": 4,
            "TEXCOORD_0": 6
          },
          "indices": 7,
          "material": 0,
          "mode": 4
        }
      ]
    },
    {
      "name": "Object_2",
      "primitives": [
        {
          "attributes": {
            "NORMAL": 9,
            "POSITION": 8,
            "TEXCOORD_0": 10
          },
          "indices": 11,
          "material": 0,
          "mode": 4
        }
      ]
    },
    {
      "name": "Object_3",
      "primitives": [
        {
          "attributes": {
            "NORMAL": 13,
            "POSITION": 12,
            "TEXCOORD_0": 14
          },
          "indices": 15,
          "material": 0,
          "mode": 4
        }
      ]
    },
    {
      "name": "Object_4",
      "primitives": [
        {
          "attributes": {
            "NORMAL": 17,
            "POSITION": 16,
            "TEXCOORD_0": 18
          },
          "indices": 19,
          "material": 0,
          "mode": 4
        }
      ]
    },
    {
      "name": "Object_5",
      "primitives": [
        {
          "attributes": {
            "NORMAL": 21,
            "POSITION": 20,
            "TEXCOORD_0": 22
          },
          "indices": 23,
          "material": 0,
          "mode": 4
        }
      ]
    },
    {
      "name": "Object_6",
      "primitives": [
        {
          "attributes": {
            "NORMAL": 25,
            "POSITION": 24,
            "TEXCOORD_0": 26
          },
          "indices": 27,
          "material": 0,
          "mode": 4
        }
      ]
    },
    {
      "name": "Object_7",
      "primitives": [
        {
          "attributes": {
            "NORMAL": 29,
            "POSITION": 28,
            "TEXCOORD_0": 30
          },
          "indices": 31,
          "material": 0,
          "mode": 4
        }
      ]
    },
    {
      "name": "Object_8",
      "primitives": [
        {
          "attributes": {
            "NORMAL": 33,
            "POSITION": 32,
            "TEXCOORD_0": 34
          },
          "indices": 35,
          "material": 0,
          "mode": 4
        }
      ]
    },
    {
      "name": "Object_9",
      "primitives": [
        {
          "attributes": {
            "NORMAL": 37,
            "POSITION": 36,
            "TEXCOORD_0": 38
          },
          "indices": 39,
          "material": 0,
          "mode": 4
        }
      ]
    },
    {
      "name": "Object_10",
      "primitives": [
        {
          "attributes": {
            "NORMAL": 41,
            "POSITION": 40,
            "TEXCOORD_0": 42
          },
          "indices": 43,
          "material": 0,
          "mode": 4
        }
      ]
    },
    {
      "name": "Object_11",
      "primitives": [
        {
          "attributes": {
            "NORMAL": 45,
            "POSITION": 44,
            "TEXCOORD_0": 46
          },
          "indices": 47,
          "material": 0,
          "mode": 4
        }
      ]
    },
    {
      "name": "Object_12",
      "primitives": [
        {
          "attributes": {
            "NORMAL": 49,
            "POSITION": 48,
            "TEXCOORD_0": 50
          },
          "indices": 51,
          "material": 0,
          "mode": 4
        }
      ]
    },
    {
      "name": "Object_13",
      "primitives": [
        {
          "attributes": {
            "NORMAL": 53,
            "POSITION": 52,
            "TEXCOORD_0": 54
          },
          "indices": 55,
          "material": 0,
          "mode": 4
        }
      ]
    },
    {
      "name": "Object_14",
      "primitives": [
        {
          "attributes": {
            "NORMAL": 57,
            "POSITION": 56,
            "TEXCOORD_0": 58
          },
          "indices": 59,
          "material": 0,
          "mode": 4
        }
      ]
    },
    {
      "name": "Object_15",
      "primitives": [
        {
          "attributes": {
            "NORMAL": 61,
            "POSITION": 60,
            "TEXCOORD_0": 62
          },
          "indices": 63,
          "material": 0,
          "mode": 4
        }
      ]
    },
    {
      "name": "Object_16",
      "primitives": [
        {
          "attributes": {
            "NORMAL": 65,
            "POSITION": 64,
            "TEXCOORD_0": 66
          },
          "indices": 67,
          "material": 0,
          "mode": 4
        }
      ]
    },
    {
      "name": "Object_17",
      "primitives": [
        {
          "attributes": {
            "NORMAL": 69,
            "POSITION": 68,
            "TEXCOORD_0": 70
          },
          "indices": 71,
          "material": 0,
          "mode": 4
        }
      ]
    },
    {
      "name": "Object_18",
      "primitives": [
        {
          "attributes": {
            "NORMAL": 73,
            "POSITION": 72,
            "TEXCOORD_0": 74
          },
          "indices": 75,
          "material": 0,
          "mode": 4
        }
      ]
    }
  ],
  "nodes": [
    {
      "children": [
        1
      ],
      "matrix": [
        1.0,
        0.0,
        0.0,
        0.0,
        0.0,
        2.220446049250313e-16,
        -1.0,
        0.0,
        0.0,
        1.0,
        2.220446049250313e-16,
        0.0,
        0.0,
        0.0,
        0.0,
        1.0
      ],
      "name": "Sketchfab_model"
    },
    {
      "children": [
        2,
        3,
        4,
        5,
        6,
        7,
        8,
        9,
        10,
        11,
        12,
        13,
        14,
        15,
        16,
        17,
        18,
        19,
        20
      ],
      "name": "Biscuit mini.obj.cleaner.materialmerger.gles"
    },
    {
      "mesh": 0,
      "name": "Object_2"
    },
    {
      "mesh": 1,
      "name": "Object_3"
    },
    {
      "mesh": 2,
      "name": "Object_4"
    },
    {
      "mesh": 3,
      "name": "Object_5"
    },
    {
      "mesh": 4,
      "name": "Object_6"
    },
    {
      "mesh": 5,
      "name": "Object_7"
    },
    {
      "mesh": 6,
      "name": "Object_8"
    },
    {
      "mesh": 7,
      "name": "Object_9"
    },
    {
      "mesh": 8,
      "name": "Object_10"
    },
    {
      "mesh": 9,
      "name": "Object_11"
    },
    {
      "mesh": 10,
      "name": "Object_12"
    },
    {
      "mesh": 11,
      "name": "Object_13"
    },
    {
      "mesh": 12,
      "name": "Object_14"
    },
    {
      "mesh": 13,
      "name": "Object_15"
    },
    {
      "mesh": 14,
      "name": "Object_16"
    },
    {
      "mesh": 15,
      "name": "Object_17"
    },
    {
      "mesh": 16,
      "name": "Object_18"
    },
    {
      "mesh": 17,
      "name": "Object_19"
    },
    {
      "mesh": 18,
      "name": "Object_20"
    }
  ],
  "samplers": [
    {
      "magFilter": 9729,
      "minFilter": 9987,
      "wrapS": 10497,
      "wrapT": 10497
    }
  ],
  "scene": 0,
  "scenes": [
    {
      "name": "Sketchfab_Scene",
      "nodes": [
        0
      ]
    }
  ],
  "textures": [
    {
      "sampler": 0,
      "source": 0
    }
  ]
}
